<svg id="Layer_1" data-name="Layer 1" xmlns="http://www.w3.org/2000/svg" viewBox="0 0 807 408"><defs><style>.cls-1{fill:#00a63c;}.cls-1,.cls-2{fill-rule:evenodd;}.cls-2{fill:#76b800;}</style></defs><title>logo</title><path class="cls-1" d="M193.89,141.42q-15.46,0-19.52,21-1.94,10.06,1.41,16.21T188,184.78c1.71,0,3.33-.06,4.85-.17l0-.08a45,45,0,0,0,4.92-1.34l7.45-38.71a15.27,15.27,0,0,0-4.9-2.19A24,24,0,0,0,193.89,141.42Z"/><path class="cls-1" d="M471.09,19.09c-24.49,6.32-132.43,30.78-230.33,53.6C216.59,78.33,69,110,52.79,121.31s-10.87,33.56,7,45.22C97.37,191,231.1,228.46,262,351.44c11.75,46.78,44,58.66,78.9-4.11C415,213.94,389.12,262.06,496.55,52.52,501.92,42,506.33,10,471.09,19.09Zm-60.92,139-8.35,43.36H380.07l7.84-40.73q2-10.51.17-14.89t-8.43-4.38a27.21,27.21,0,0,0-10.21,2.82A72.3,72.3,0,0,1,368,158.06l-8.35,43.36H337.87l7.85-40.73q2-10.51.16-14.89-1.47-3.47-5.89-4.19h0a16.41,16.41,0,0,0-2.52-.18,21.62,21.62,0,0,0-5.06.87,23.53,23.53,0,0,0-5.61,2.19,31.69,31.69,0,0,1,0,7.08c-.17,1.46-.38,3-.64,4.57h0l-.28,1.48c-.11.62-.23,1.26-.35,1.9l-8.07,41.9H295.68l7.18-37.31,0-.21,1.43-7.44c.8-5.8,1-10.74-6.29-9.92a17.2,17.2,0,0,0-7.29,2.64h-.19v0l0,0c-3.76-4.59-9.45-9.35-21.13-8.81q-8.07.58-9,5.62a5.54,5.54,0,0,0,0,2.33,3.75,3.75,0,0,0,1.37,2,18.54,18.54,0,0,0,3.18,2.05,52.15,52.15,0,0,0,5.3,2.43A71,71,0,0,1,281,159.81a21.29,21.29,0,0,1,6.3,5.55,13.82,13.82,0,0,1,2.52,6.64,28.81,28.81,0,0,1-.53,8.45,24.65,24.65,0,0,1-11.85,17.2q-9.66,5.81-25.29,5.82a77.62,77.62,0,0,1-12.66-.9c-6.56-.87-17.37-4.62-21.85-9.38l-.07.37-1.07.29a48,48,0,0,1-21.92,8.77,13.22,13.22,0,0,1-2,.34q-4.38.36-8.32.36a43.92,43.92,0,0,1-16.4-2.77,26.27,26.27,0,0,1-11-8A27.33,27.33,0,0,1,151.49,180a46.19,46.19,0,0,1,.49-16.57,64.49,64.49,0,0,1,5.58-16.86,47.45,47.45,0,0,1,9.18-12.78,37.58,37.58,0,0,1,12.28-8A39.92,39.92,0,0,1,194.08,123a31.77,31.77,0,0,1,7.93.88,36.47,36.47,0,0,1,6.75,2.48L215.19,93l22.69-4.87-15,77.75c2.42,9.82,12.5,16.81,24,19.17a51.36,51.36,0,0,0,8.83.76q6,0,8.69-1.17a5.7,5.7,0,0,0,3.36-4.52q.51-2.64-2.33-4.6a48.65,48.65,0,0,0-8.92-4.46,79.56,79.56,0,0,1-8.51-3.94,20.53,20.53,0,0,1-6.14-4.89,15.36,15.36,0,0,1-3.22-6.79,24,24,0,0,1,.22-9.49,25.82,25.82,0,0,1,11.32-17.08q9.24-6.29,23.25-6.28a4.9,4.9,0,0,1,.77.06,44.7,44.7,0,0,1,8.8,1A26.83,26.83,0,0,1,295.33,130c4.27-3.74,11.29-5.56,17.52-4.29v0l.14.06a16.43,16.43,0,0,1,5.94,2.5l.28.19a18.34,18.34,0,0,1,1.79,1.53,46.79,46.79,0,0,1,11.57-5.15,41,41,0,0,1,11.54-1.9q9.19,0,14.61,2.56a18.65,18.65,0,0,1,5.52,3.85c6.6-3.84,15.18-6.41,22.05-6.41,9.26,0,18.29,2,22.64,9.78a23,23,0,0,1,2.68,11.1A70.57,70.57,0,0,1,410.17,158.06Z"/><path class="cls-2" d="M755,149.78c.36-1.82-.09-2.28-2.09-2.28h-5.73c-2,0-2.64.46-3,2.28l-1.82,9.54-6,1c-1.18.19-1.55.46-1.82,1.91l-.82,4c-.27,1.37.09,1.73,1.46,1.73h5.45l-3.91,20.37a34.69,34.69,0,0,0-.91,7.27c0,5.46,3.73,7.82,12,7.82h6.36c1.82,0,2.27-.45,2.64-2.27l.91-4.46c.36-1.72.09-2.18-1.82-2.18h-4.18c-3.82,0-4.64-.73-4.64-2.46a18.83,18.83,0,0,1,.54-4.09l3.82-20h9c1.55,0,2.1-.73,2.37-2.27l.91-4.46c.36-1.82.09-2.36-1.46-2.36h-9Zm-43.1,16.82c2.64,0,4.28.63,5.09,1.82a6.13,6.13,0,0,1,.73,3.27,23.89,23.89,0,0,1-.64,4.82c-.18.91-.45,1.27-1.36,1.27h-13c1-4.91,1.82-7.46,3.55-9.18A7.4,7.4,0,0,1,711.93,166.6Zm14.73,17.09c1.27-6.36,2-10,2-13.91,0-7.64-5.45-11.73-15.55-11.73-11.27,0-18.18,4.18-20.82,17.46-1.27,6.54-2.45,13-2.45,17,0,7.82,4.73,11.73,17.27,11.73A50.6,50.6,0,0,0,721.39,202c1.36-.46,1.82-.91,1.63-2.37l-.72-4.82c-.18-1.45-1-1.45-2.19-1.09a42.33,42.33,0,0,1-10.27,1.55c-3.73,0-6.09-.37-7.27-1.09a4,4,0,0,1-1.91-3.55,23.76,23.76,0,0,1,.45-4.27h22.55C725.57,186.33,726.3,185.6,726.66,183.69Zm-69.92-8.09a12.09,12.09,0,0,1,3.46-6.73c1.54-1.36,3.54-2,6.82-2,5.18,0,6.82,1.18,6.82,5.91,0,2.09-1.18,7.82-2.28,13.46-1.27,6.72-3.54,9.27-10.45,9.27-5.09,0-7-1.36-7-4.27a36.5,36.5,0,0,1,.81-6.28Zm-21.45.64a37.31,37.31,0,0,0,.81-6.73c0-3.28-.72-5.82-2.27-7.64-2.09-2.64-5.55-3.82-10.64-3.82a24.86,24.86,0,0,0-14.91,5.09c-1.91-3.18-5.91-5.09-11.36-5.09a20.18,20.18,0,0,0-13.19,4.64h-.27v-2.18c0-1.28-.45-1.64-2-1.64h-3.55c-1.54,0-2.09.36-2.36,1.64l-7.91,40.64c-.36,1.82.09,2.27,2.09,2.27h5.73c2,0,2.64-.45,3-2.27l5.18-26.37c.73-3.73,1.73-5.18,3.09-6.27a10.06,10.06,0,0,1,6.19-1.64c2.9,0,4.18.55,5.36,1.91a5.16,5.16,0,0,1,.91,3.27,23.93,23.93,0,0,1-.45,3.82l-4.92,25.28c-.36,1.82.1,2.27,2.1,2.27h5.72c2,0,2.64-.45,3-2.27l4.63-23.92a68.9,68.9,0,0,0,1.09-7,13.43,13.43,0,0,1,8.73-3.36c2.64,0,4.18.64,5.09,2a5.47,5.47,0,0,1,.82,3.18,23.93,23.93,0,0,1-.45,3.82l-4.91,25.28c-.37,1.82.09,2.27,2.09,2.27h5.73c2,0,2.63-.45,3-2.27Zm-88.74-9.55c4.27,0,6.45,2.09,6.45,6.18a53.69,53.69,0,0,1-1.63,10.46c-2.18,9.63-4.55,12.27-10.64,12.27-4.64,0-6.55-2.36-6.55-5.45a51.66,51.66,0,0,1,1.46-10.55C537.64,170.32,540.27,166.69,546.55,166.69Zm1.09-8.64c-13.1,0-19.73,6.37-22.28,19.46-1.27,6.73-2,11.18-2,13.91,0,8.37,5.73,12.82,16,12.82,13.72,0,19.63-5.91,22.09-17.28,1.45-6.82,2.27-11.45,2.27-15.27C563.73,162.23,558.46,158.05,547.64,158.05Zm-26-13.91c.36-1.82-.1-2.27-2.1-2.27h-5.72c-2,0-2.64.45-3,2.27l-3.27,16.73h-.27c-2-1.73-5.82-2.82-10.09-2.82-11,0-16.82,4.55-19.64,18-1.64,7.73-2.37,12.82-2.37,16.28,0,7.82,4.91,11.91,15.46,11.91,8.64,0,13.46-1.46,16.64-4s4.64-6.46,5.91-13Zm106.4,123a38.11,38.11,0,0,0-.82,7c0,3.73,2.36,6,8.45,6h6.1c1.54,0,2.18-.45,2.45-2.18l.91-4.55c.36-1.63,0-2.18-1.63-2.18h-2.73c-1.73,0-2.19-.36-2.19-1.18a24,24,0,0,1,.46-3.55l12.7-65.17c2.18,1.82,5.73,2.91,11.19,2.91,10.82,0,16.82-3.64,19.36-16.82,1.46-7.46,2.82-13.28,2.82-17.73,0-8.64-5.73-11.64-13.18-11.64-7.19,0-11.19,1.55-14.91,4.55h-.19v-2.28c0-1.18-.54-1.45-2.09-1.45H651.2c-1.55,0-2,.36-2.28,1.73Q638.42,213.88,628,267.14Zm-21.46,9.18.09,2.18c.09,1.19.55,1.64,1.91,1.64H613a1.9,1.9,0,0,0,2.18-1.73l5.63-28.73a28.06,28.06,0,0,0,.55-5.09c0-3.27-1-5.36-3-6.91-2.64-2.09-6-2.91-11.64-2.91a56.8,56.8,0,0,0-15,2.18c-1.64.46-2.18,1.1-1.91,2.73l.55,4.27c.18,1.28.81,1.73,2,1.46a48.66,48.66,0,0,1,11-1.73c4.45,0,6.82.55,6.82,3.27a22.69,22.69,0,0,1-.55,3.92l-.27,1.27c-1.55-.09-3.27-.27-4.91-.27h-3.09c-9.64,0-15.64,2.63-17.91,10a39.92,39.92,0,0,0-1.91,10.45c0,5.18,3.91,8.64,10.54,8.64h2.91c5.82,0,9.46-1.73,11.46-4.64Zm.09-10.45c-.91,4.63-3.09,6.45-8,6.45h-2.09c-3.09,0-4.64-.82-4.64-2.63a16.18,16.18,0,0,1,.91-4.64c1.09-3.37,3-4.55,7.18-4.55h2.55c1.82,0,3.55.09,5.09.18Zm-29.73-28c.27-1.82-.18-2.27-2.18-2.27H569c-2,0-2.64.45-2.91,2.27l-7.82,40c-.36,1.82.09,2.27,2.09,2.27h5.73c2,0,2.64-.45,3-2.27ZM580.76,224c.82-4.36-1.36-6.27-5.09-6.27h-.46c-3.91,0-6.82,1.91-7.63,6.27l-.1.55c-.81,4.09.64,6.36,5.28,6.36h.45c4.18,0,6.64-2.27,7.46-6.36ZM534.39,281c9.73,0,14.91-2.73,17.09-10.55a32.09,32.09,0,0,0,1.09-7.72c0-5.55-4.36-7.64-9.09-8.92l-6.18-1.54c-2.55-.73-3.46-1.64-3.46-3.09a10.06,10.06,0,0,1,.46-2.37c.82-2.27,2.45-3.18,7.27-3.18a34.72,34.72,0,0,1,9.37,1.46c1.27.36,1.91.18,2.27-1l1.46-5.19c.36-1.36.27-1.91-1.19-2.36a43.65,43.65,0,0,0-11.73-1.73c-10.36,0-15.09,2.91-17.18,9.82a25.1,25.1,0,0,0-1.09,7.28c0,3.54,2.36,6.81,7.91,8.45l6.82,2c2.82.82,3.82,1.73,3.82,3.55a10.33,10.33,0,0,1-.73,3.45c-.82,2.09-3.64,2.82-7.64,2.82a33.2,33.2,0,0,1-10.91-2.09c-1-.36-1.91-.36-2.36,1L519,275.78c-.45,1.45-.36,2.18,1,2.63A44.43,44.43,0,0,0,534.39,281Zm-36-37.55c4.27,0,6.45,2.09,6.45,6.18a53.81,53.81,0,0,1-1.64,10.46c-2.18,9.64-4.54,12.27-10.63,12.27-4.64,0-6.55-2.36-6.55-5.45a51.59,51.59,0,0,1,1.45-10.55C489.48,247.05,492.11,243.41,498.39,243.41Zm1.09-8.64c-13.1,0-19.73,6.37-22.28,19.46-1.27,6.73-2,11.18-2,13.91,0,8.36,5.73,12.82,16,12.82,13.73,0,19.64-5.91,22.1-17.28,1.45-6.81,2.27-11.45,2.27-15.27C515.57,239,510.3,234.77,499.48,234.77ZM449.56,281c9.73,0,14.91-2.73,17.09-10.55a32.11,32.11,0,0,0,1.1-7.72c0-5.55-4.37-7.64-9.1-8.92l-6.18-1.54c-2.55-.73-3.45-1.64-3.45-3.09a10.05,10.05,0,0,1,.45-2.37c.82-2.27,2.45-3.18,7.27-3.18a34.72,34.72,0,0,1,9.37,1.46c1.27.36,1.91.18,2.27-1l1.46-5.19c.36-1.36.27-1.91-1.19-2.36a43.63,43.63,0,0,0-11.72-1.73c-10.37,0-15.1,2.91-17.19,9.82a25.1,25.1,0,0,0-1.09,7.28c0,3.54,2.36,6.81,7.91,8.45l6.82,2c2.82.82,3.82,1.73,3.82,3.55a10.09,10.09,0,0,1-.73,3.45c-.82,2.09-3.64,2.82-7.64,2.82a33.2,33.2,0,0,1-10.91-2.09c-1-.36-1.91-.36-2.36,1l-1.37,4.73c-.45,1.45-.36,2.18,1,2.63A44.43,44.43,0,0,0,449.56,281Zm52.89-94.18c-.64,3.46-1.36,5.37-2.91,6.73s-3.45,1.91-7.18,1.91c-4.64,0-6.28-1.64-6.28-4.46,0-2.45.55-5.91,1.82-12.27,1.09-5.46,2.46-8.27,4.09-9.91,1.37-1.36,3.46-2.09,6.37-2.09,5.09,0,6.64,2,6.64,5a26.45,26.45,0,0,1-.55,4.91Z"/></svg>